ISO-10303-21;
HEADER;
/* Generated by software containing ST-Developer
 * from STEP Tools, Inc. (www.steptools.com) 
 */
/* OPTION: using custom renumber hook */

FILE_DESCRIPTION(
/* description */ ('STEP AP242 Edition 2',
'CAx-IF Rec.Pracs.---Representation and Presentation of Product Manufa
cturing Information (PMI)---4.0---2014-10-13',
'CAx-IF Rec.Pracs.---3D Tessellated Geometry---0.4---2014-09-14','2;1',
'CAx-IF Rec.Pracs.---User Defined Attributes---1.5---2016-08-15'),
/* implementation_level */ '2;1');

FILE_NAME(
/* name */ 'Actual hat',
/* time_stamp */ '2026-07-26T00:35:20Z',
/* author */ (''),
/* organization */ (''),
/* preprocessor_version */ 'ST-DEVELOPER v20',
/* originating_system */ 'ONSHAPE BY PTC INC, 1.218',
/* authorisation */ '  ');

FILE_SCHEMA (('AP242_MANAGED_MODEL_BASED_3D_ENGINEERING_MIM_LF { 1 0 10303 442 3 1 4 }'));
ENDSEC;

DATA;
#10=SHAPE_REPRESENTATION_RELATIONSHIP('','',#113,#11);
#11=ADVANCED_BREP_SHAPE_REPRESENTATION('',(#111),#195);
#12=PLANE('',#118);
#13=PLANE('',#122);
#14=PLANE('',#123);
#15=PLANE('',#127);
#16=PLANE('',#131);
#17=ORIENTED_EDGE('',*,*,#33,.T.);
#18=ORIENTED_EDGE('',*,*,#34,.F.);
#19=ORIENTED_EDGE('',*,*,#34,.T.);
#20=ORIENTED_EDGE('',*,*,#35,.F.);
#21=ORIENTED_EDGE('',*,*,#36,.T.);
#22=ORIENTED_EDGE('',*,*,#33,.F.);
#23=ORIENTED_EDGE('',*,*,#35,.T.);
#24=ORIENTED_EDGE('',*,*,#37,.F.);
#25=ORIENTED_EDGE('',*,*,#36,.F.);
#26=ORIENTED_EDGE('',*,*,#38,.F.);
#27=ORIENTED_EDGE('',*,*,#37,.T.);
#28=ORIENTED_EDGE('',*,*,#39,.F.);
#29=ORIENTED_EDGE('',*,*,#38,.T.);
#30=ORIENTED_EDGE('',*,*,#40,.F.);
#31=ORIENTED_EDGE('',*,*,#39,.T.);
#32=ORIENTED_EDGE('',*,*,#40,.T.);
#33=EDGE_CURVE('',#41,#41,#49,.T.);
#34=EDGE_CURVE('',#42,#42,#50,.T.);
#35=EDGE_CURVE('',#43,#43,#51,.T.);
#36=EDGE_CURVE('',#44,#44,#52,.T.);
#37=EDGE_CURVE('',#45,#45,#53,.T.);
#38=EDGE_CURVE('',#46,#46,#54,.T.);
#39=EDGE_CURVE('',#47,#47,#55,.T.);
#40=EDGE_CURVE('',#48,#48,#56,.T.);
#41=VERTEX_POINT('',#171);
#42=VERTEX_POINT('',#173);
#43=VERTEX_POINT('',#177);
#44=VERTEX_POINT('',#179);
#45=VERTEX_POINT('',#183);
#46=VERTEX_POINT('',#186);
#47=VERTEX_POINT('',#189);
#48=VERTEX_POINT('',#192);
#49=CIRCLE('',#116,0.008255);
#50=CIRCLE('',#117,0.008255);
#51=CIRCLE('',#120,0.01143);
#52=CIRCLE('',#121,0.01143);
#53=CIRCLE('',#124,0.003175);
#54=CIRCLE('',#126,0.003175);
#55=CIRCLE('',#128,0.001594866);
#56=CIRCLE('',#130,0.001594866);
#57=EDGE_LOOP('',(#17));
#58=EDGE_LOOP('',(#18));
#59=EDGE_LOOP('',(#19));
#60=EDGE_LOOP('',(#20));
#61=EDGE_LOOP('',(#21));
#62=EDGE_LOOP('',(#22));
#63=EDGE_LOOP('',(#23));
#64=EDGE_LOOP('',(#24));
#65=EDGE_LOOP('',(#25));
#66=EDGE_LOOP('',(#26));
#67=EDGE_LOOP('',(#27));
#68=EDGE_LOOP('',(#28));
#69=EDGE_LOOP('',(#29));
#70=EDGE_LOOP('',(#30));
#71=EDGE_LOOP('',(#31));
#72=EDGE_LOOP('',(#32));
#73=FACE_BOUND('',#57,.T.);
#74=FACE_BOUND('',#58,.T.);
#75=FACE_BOUND('',#59,.T.);
#76=FACE_BOUND('',#60,.T.);
#77=FACE_BOUND('',#61,.T.);
#78=FACE_BOUND('',#62,.T.);
#79=FACE_BOUND('',#63,.T.);
#80=FACE_BOUND('',#64,.T.);
#81=FACE_BOUND('',#65,.T.);
#82=FACE_BOUND('',#66,.T.);
#83=FACE_BOUND('',#67,.T.);
#84=FACE_BOUND('',#68,.T.);
#85=FACE_BOUND('',#69,.T.);
#86=FACE_BOUND('',#70,.T.);
#87=FACE_BOUND('',#71,.T.);
#88=FACE_BOUND('',#72,.T.);
#89=CYLINDRICAL_SURFACE('',#115,0.008255);
#90=CYLINDRICAL_SURFACE('',#119,0.01143);
#91=CYLINDRICAL_SURFACE('',#125,0.003175);
#92=CYLINDRICAL_SURFACE('',#129,0.001594866);
#93=ADVANCED_FACE('',(#73,#74),#89,.T.);
#94=ADVANCED_FACE('',(#75),#12,.T.);
#95=ADVANCED_FACE('',(#76,#77),#90,.T.);
#96=ADVANCED_FACE('',(#78,#79),#13,.T.);
#97=ADVANCED_FACE('',(#80,#81),#14,.F.);
#98=ADVANCED_FACE('',(#82,#83),#91,.T.);
#99=ADVANCED_FACE('',(#84,#85),#15,.T.);
#100=ADVANCED_FACE('',(#86,#87),#92,.F.);
#101=ADVANCED_FACE('',(#88),#16,.T.);
#102=CLOSED_SHELL('',(#93,#94,#95,#96,#97,#98,#99,#100,#101));
#103=STYLED_ITEM('',(#104),#111);
#104=PRESENTATION_STYLE_ASSIGNMENT((#105));
#105=SURFACE_STYLE_USAGE(.BOTH.,#106);
#106=SURFACE_SIDE_STYLE('',(#107));
#107=SURFACE_STYLE_FILL_AREA(#108);
#108=FILL_AREA_STYLE('',(#109));
#109=FILL_AREA_STYLE_COLOUR('',#110);
#110=COLOUR_RGB('',0.615686274509804,0.811764705882353,0.929411764705882);
#111=MANIFOLD_SOLID_BREP('Part 1',#102);
#112=SHAPE_DEFINITION_REPRESENTATION(#200,#113);
#113=SHAPE_REPRESENTATION('Part 1',(#114),#195);
#114=AXIS2_PLACEMENT_3D('',#168,#132,#133);
#115=AXIS2_PLACEMENT_3D('',#169,#134,#135);
#116=AXIS2_PLACEMENT_3D('',#170,#136,#137);
#117=AXIS2_PLACEMENT_3D('',#172,#138,#139);
#118=AXIS2_PLACEMENT_3D('',#174,#140,#141);
#119=AXIS2_PLACEMENT_3D('',#175,#142,#143);
#120=AXIS2_PLACEMENT_3D('',#176,#144,#145);
#121=AXIS2_PLACEMENT_3D('',#178,#146,#147);
#122=AXIS2_PLACEMENT_3D('',#180,#148,#149);
#123=AXIS2_PLACEMENT_3D('',#181,#150,#151);
#124=AXIS2_PLACEMENT_3D('',#182,#152,#153);
#125=AXIS2_PLACEMENT_3D('',#184,#154,#155);
#126=AXIS2_PLACEMENT_3D('',#185,#156,#157);
#127=AXIS2_PLACEMENT_3D('',#187,#158,#159);
#128=AXIS2_PLACEMENT_3D('',#188,#160,#161);
#129=AXIS2_PLACEMENT_3D('',#190,#162,#163);
#130=AXIS2_PLACEMENT_3D('',#191,#164,#165);
#131=AXIS2_PLACEMENT_3D('',#193,#166,#167);
#132=DIRECTION('',(0.,0.,1.));
#133=DIRECTION('',(1.,0.,0.));
#134=DIRECTION('',(0.,0.,-1.));
#135=DIRECTION('',(-1.,0.,0.));
#136=DIRECTION('',(0.,0.,1.));
#137=DIRECTION('',(1.,0.,0.));
#138=DIRECTION('',(0.,0.,1.));
#139=DIRECTION('',(1.,0.,0.));
#140=DIRECTION('',(0.,0.,1.));
#141=DIRECTION('',(1.,0.,0.));
#142=DIRECTION('',(0.,0.,-1.));
#143=DIRECTION('',(-1.,0.,0.));
#144=DIRECTION('',(0.,0.,1.));
#145=DIRECTION('',(1.,0.,0.));
#146=DIRECTION('',(0.,0.,1.));
#147=DIRECTION('',(1.,0.,0.));
#148=DIRECTION('',(0.,0.,1.));
#149=DIRECTION('',(1.,0.,0.));
#150=DIRECTION('',(0.,0.,1.));
#151=DIRECTION('',(1.,0.,0.));
#152=DIRECTION('',(0.,0.,-1.));
#153=DIRECTION('',(-1.,0.,0.));
#154=DIRECTION('',(0.,0.,1.));
#155=DIRECTION('',(1.,0.,0.));
#156=DIRECTION('',(0.,0.,-1.));
#157=DIRECTION('',(-1.,0.,0.));
#158=DIRECTION('',(0.,0.,-1.));
#159=DIRECTION('',(1.,0.,0.));
#160=DIRECTION('',(0.,0.,-1.));
#161=DIRECTION('',(-1.,0.,0.));
#162=DIRECTION('',(0.,0.,-1.));
#163=DIRECTION('',(-1.,0.,0.));
#164=DIRECTION('',(0.,0.,-1.));
#165=DIRECTION('',(-1.,0.,0.));
#166=DIRECTION('',(0.,0.,-1.));
#167=DIRECTION('',(1.,0.,0.));
#168=CARTESIAN_POINT('',(0.,0.,0.));
#169=CARTESIAN_POINT('',(0.,5.0547296634807E-19,0.01905));
#170=CARTESIAN_POINT('',(0.,5.0547296634807E-19,0.00508));
#171=CARTESIAN_POINT('',(0.008255,5.0547296634807E-19,0.00508));
#172=CARTESIAN_POINT('',(0.,5.0547296634807E-19,0.01905));
#173=CARTESIAN_POINT('',(0.008255,5.0547296634807E-19,0.01905));
#174=CARTESIAN_POINT('',(0.,0.,0.01905));
#175=CARTESIAN_POINT('',(0.,6.99885645712712E-19,0.00508));
#176=CARTESIAN_POINT('',(0.,6.99885645712712E-19,0.00508));
#177=CARTESIAN_POINT('',(0.01143,6.99885645712712E-19,0.00508));
#178=CARTESIAN_POINT('',(0.,6.99885645712712E-19,0.));
#179=CARTESIAN_POINT('',(0.01143,6.99885645712712E-19,0.));
#180=CARTESIAN_POINT('',(0.,0.,0.00508));
#181=CARTESIAN_POINT('',(0.,0.,0.));
#182=CARTESIAN_POINT('',(0.,-1.94412679364643E-19,0.));
#183=CARTESIAN_POINT('',(-0.003175,-1.94412679364643E-19,0.));
#184=CARTESIAN_POINT('',(0.,-1.94412679364643E-19,-0.00127));
#185=CARTESIAN_POINT('',(0.,-1.94412679364643E-19,-0.00127));
#186=CARTESIAN_POINT('',(-0.003175,-1.94412679364643E-19,-0.00127));
#187=CARTESIAN_POINT('',(0.,0.,-0.00127));
#188=CARTESIAN_POINT('',(0.,-9.76573770984472E-20,-0.00127));
#189=CARTESIAN_POINT('',(-0.001594866,-9.76573770984472E-20,-0.00127));
#190=CARTESIAN_POINT('',(0.,-9.76573770984472E-20,0.00508));
#191=CARTESIAN_POINT('',(0.,-9.76573770984472E-20,0.00508));
#192=CARTESIAN_POINT('',(-0.001594866,-9.76573770984472E-20,0.00508));
#193=CARTESIAN_POINT('',(0.,0.,0.00508));
#194=MECHANICAL_DESIGN_GEOMETRIC_PRESENTATION_REPRESENTATION('',(#103),
#195);
#195=(
GEOMETRIC_REPRESENTATION_CONTEXT(3)
GLOBAL_UNCERTAINTY_ASSIGNED_CONTEXT((#196))
GLOBAL_UNIT_ASSIGNED_CONTEXT((#199,#198,#197))
REPRESENTATION_CONTEXT('Part 1','TOP_LEVEL_ASSEMBLY_PART')
);
#196=UNCERTAINTY_MEASURE_WITH_UNIT(LENGTH_MEASURE(1.E-8),#199,
'DISTANCE_ACCURACY_VALUE','Maximum Tolerance applied to model');
#197=(
NAMED_UNIT(*)
SI_UNIT($,.STERADIAN.)
SOLID_ANGLE_UNIT()
);
#198=(
NAMED_UNIT(*)
PLANE_ANGLE_UNIT()
SI_UNIT($,.RADIAN.)
);
#199=(
LENGTH_UNIT()
NAMED_UNIT(*)
SI_UNIT($,.METRE.)
);
#200=PRODUCT_DEFINITION_SHAPE('','',#201);
#201=PRODUCT_DEFINITION('','',#203,#202);
#202=PRODUCT_DEFINITION_CONTEXT('',#209,'design');
#203=PRODUCT_DEFINITION_FORMATION_WITH_SPECIFIED_SOURCE('','',#205,
 .NOT_KNOWN.);
#204=PRODUCT_RELATED_PRODUCT_CATEGORY('','',(#205));
#205=PRODUCT('Part 1','Part 1','Part 1',(#207));
#206=PRODUCT_CATEGORY('','');
#207=PRODUCT_CONTEXT('',#209,'mechanical');
#208=APPLICATION_PROTOCOL_DEFINITION('international standard',
'ap242_managed_model_based_3d_engineering',2020,#209);
#209=APPLICATION_CONTEXT('managed model based 3d engineering');
ENDSEC;
END-ISO-10303-21;
