ISO-10303-21;
HEADER;
/* Generated by software containing ST-Developer
 * from STEP Tools, Inc. (www.steptools.com) 
 */
/* OPTION: using custom renumber hook */

FILE_DESCRIPTION(
/* description */ ('STEP AP242 Edition 2',
'CAx-IF Rec.Pracs.---Representation and Presentation of Product Manufa
cturing Information (PMI)---4.0---2014-10-13',
'CAx-IF Rec.Pracs.---3D Tessellated Geometry---0.4---2014-09-14','2;1',
'CAx-IF Rec.Pracs.---User Defined Attributes---1.5---2016-08-15'),
/* implementation_level */ '2;1');

FILE_NAME(
/* name */ 'Bottom head',
/* time_stamp */ '2026-07-26T00:53:17Z',
/* author */ (''),
/* organization */ (''),
/* preprocessor_version */ 'ST-DEVELOPER v20',
/* originating_system */ 'ONSHAPE BY PTC INC, 1.218',
/* authorisation */ '  ');

FILE_SCHEMA (('AP242_MANAGED_MODEL_BASED_3D_ENGINEERING_MIM_LF { 1 0 10303 442 3 1 4 }'));
ENDSEC;

DATA;
#10=SHAPE_REPRESENTATION_RELATIONSHIP('','',#31,#11);
#11=TESSELLATED_SHAPE_REPRESENTATION('',(#29),#37);
#12=STYLED_ITEM('',(#14),#27);
#13=STYLED_ITEM('',(#15),#29);
#14=PRESENTATION_STYLE_ASSIGNMENT((#16));
#15=PRESENTATION_STYLE_ASSIGNMENT((#17));
#16=SURFACE_STYLE_USAGE(.BOTH.,#18);
#17=SURFACE_STYLE_USAGE(.BOTH.,#19);
#18=SURFACE_SIDE_STYLE('',(#20));
#19=SURFACE_SIDE_STYLE('',(#21));
#20=SURFACE_STYLE_FILL_AREA(#22);
#21=SURFACE_STYLE_FILL_AREA(#23);
#22=FILL_AREA_STYLE('',(#24));
#23=FILL_AREA_STYLE('',(#25));
#24=FILL_AREA_STYLE_COLOUR('',#26);
#25=FILL_AREA_STYLE_COLOUR('',#26);
#26=COLOUR_RGB('',0.615686274509804,0.811764705882353,0.929411764705882);
#27=COMPLEX_TRIANGULATED_FACE('ConvergentBody',#28,88,((-1.,0.,0.),(-0.879356828815907,
0.,-0.476163383320087),(0.,-1.,0.),(0.,-1.,0.),(-1.,0.,0.),(0.,0.,1.),(-1.,
0.,0.),(0.,0.,1.),(0.,1.,0.),(0.,-1.,0.),(0.879356828815907,0.,-0.476163383320087),
(1.,0.,0.),(-1.,0.,0.),(0.,1.,0.),(-0.879356828815907,0.,-0.476163383320087),
(-0.879356828815907,0.,-0.476163383320087),(0.,0.,-1.),(0.,-1.,0.),(0.,
0.,-1.),(0.,-1.,0.),(0.879356828815907,0.,-0.476163383320087),(0.,0.,1.),
(0.875966349077983,-0.48237221653303,0.),(1.,0.,0.),(0.,0.,1.),(0.,1.,0.),
(1.,0.,0.),(1.,0.,0.),(0.,0.,1.),(0.875966349077983,-0.48237221653303,0.),
(0.,0.,1.),(0.,-1.,0.),(1.,0.,0.),(0.,1.,0.),(0.,0.,1.),(1.,0.,0.),(-0.879356828815907,
0.,-0.476163383320087),(0.,1.,0.),(0.,0.,-1.),(0.,1.,0.),(1.,0.,0.),(1.,
0.,0.),(0.,1.,0.),(0.,0.,1.),(0.,1.,0.),(0.,0.,1.),(-1.,0.,0.),(1.,0.,0.),
(0.,0.,0.999999999999888),(0.875966349077983,-0.48237221653303,0.),(0.,
1.,0.),(0.,0.,1.),(-1.,0.,0.),(0.875966349077983,-0.48237221653303,0.),
(0.,0.,0.999999999999779),(1.,0.,0.),(0.,0.,0.999999999999888),(-1.,0.,
0.),(-0.875957112906458,-0.482388988627002,0.),(0.,1.,0.),(1.,0.,0.),(0.,
0.,1.),(0.,0.,1.),(0.,1.,0.),(-1.,0.,0.),(0.,1.,0.),(0.879356828815907,
0.,-0.476163383320087),(0.,0.,-1.),(0.,0.,0.999999999999779),(-0.875957112906458,
-0.482388988627002,0.),(-1.,0.,0.),(-0.875957112906458,-0.482388988627002,
0.),(-1.,0.,0.),(0.,0.,1.),(-1.,0.,0.),(0.,0.,1.),(0.,1.,0.),(-0.875957112906458,
-0.482388988627002,0.),(-1.,0.,0.),(0.,0.,1.),(-1.,0.,0.),(0.,1.,0.),(0.,
0.,1.),(0.,1.,0.),(1.,0.,0.),(0.,1.,0.),(1.,0.,0.),(0.879356828815907,0.,
-0.476163383320087)),$,(1,1,1,2,2,2,4,4,4,27,27,27,3,3,3,9,9,9,21,21,21,
12,12,12,7,7,7,6,6,6,28,28,28,15,15,15,10,10,10,14,14,5,5,5,23,23,23,8,
8,8,24,24,24,11,11,11,25,25,25,13,13,13,18,18,18,22,22,22,17,17,17,16,16,
16,20,20,20,26,26,26,19,19,30,30,30,29,29,29),((1,5,7),(10,4,3),(1,7,13),
(16,2,15),(20,3,18),(20,10,3),(22,8,6),(25,29,6),(6,31,25),(29,22,6),(10,
32,4),(14,9,34),(16,15,37),(38,14,40),(14,34,40),(22,35,8),(42,28,27),(45,
43,26),(42,48,28),(49,44,46),(45,26,51),(31,52,25),(50,23,30),(50,54,23),
(55,49,57),(49,46,57),(39,19,17),(38,40,60),(38,60,64),(66,38,64),(39,68,
19),(24,56,61),(62,55,69),(55,57,69),(61,41,24),(41,36,24),(62,69,63),(71,
73,75),(70,78,72),(81,65,71),(81,71,75),(70,59,78),(76,74,80),(64,82,66),
(84,82,77),(82,86,66),(84,86,82),(31,76,80),(31,83,76),(67,11,21),(67,88,
11),(58,47,53),(58,53,79),(31,80,52),(87,33,12),(87,85,33)),());
#28=COORDINATES_LIST('',30,((0.,0.,0.00615752403325995),(0.,0.,0.0106742453262538),
(0.,0.0042325901439018,0.00615752403325995),(0.,0.0042325901439018,0.0106742453262538),
(0.00299970593760812,0.00121814416145,0.00160153505480808),(0.00299970593760812,
0.00152213088337112,0.0106742453262538),(0.00299970593760812,0.00121814416145,
0.0106742453262538),(0.00299970593760812,0.00152213088337112,0.00160153505480808),
(0.00333424086840817,0.,0.),(0.00333424086840817,0.0042325901439018,0.),
(0.0043466347558704,0.00396809331437761,0.00160153219377453),(0.0043466347558704,
0.00396809331437762,0.0106742453262538),(0.0043466347558704,0.0042325901439018,
0.00160153219377453),(0.0043466347558704,0.0042325901439018,0.00615752403325995),
(0.0043466347558704,0.0042325901439018,0.0106742453262538),(0.0132872196369967,
0.00396809331437761,0.0106742453262538),(0.0132872196369967,0.00396809331437762,
0.00160153219377453),(0.0132872196369967,0.0042325901439018,0.00160153219377453),
(0.0132872196369967,0.0042325901439018,0.00615752403325995),(0.0132872196369967,
0.0042325901439018,0.0106742453262538),(0.0142996135244589,0.,0.),(0.0142996135244589,
0.0042325901439018,0.),(0.0146342094906413,0.00121814416145,0.00160153505480808),
(0.0146342094906413,0.00121814416145,0.0106742453262538),(0.0146342094906413,
0.00152213088337112,0.00160153505480808),(0.0146342094906413,0.00152213088337112,
0.0106742453262538),(0.0176338543928671,0.,0.00615752403325995),(0.0176338543928671,
0.,0.0106742453262538),(0.0176338543928671,0.0042325901439018,0.00615752403325995),
(0.0176338543928671,0.0042325901439018,0.0106742453262538)));
#29=TESSELLATED_SHELL('Part 1',(#27),$);
#30=SHAPE_DEFINITION_REPRESENTATION(#42,#31);
#31=SHAPE_REPRESENTATION('Part 1',(#32),#37);
#32=AXIS2_PLACEMENT_3D('',#35,#33,#34);
#33=DIRECTION('',(0.,0.,1.));
#34=DIRECTION('',(1.,0.,0.));
#35=CARTESIAN_POINT('',(0.,0.,0.));
#36=MECHANICAL_DESIGN_GEOMETRIC_PRESENTATION_REPRESENTATION('',(#12,#13),
#37);
#37=(
GEOMETRIC_REPRESENTATION_CONTEXT(3)
GLOBAL_UNCERTAINTY_ASSIGNED_CONTEXT((#38))
GLOBAL_UNIT_ASSIGNED_CONTEXT((#41,#40,#39))
REPRESENTATION_CONTEXT('Part 1','TOP_LEVEL_ASSEMBLY_PART')
);
#38=UNCERTAINTY_MEASURE_WITH_UNIT(LENGTH_MEASURE(1.E-8),#41,
'DISTANCE_ACCURACY_VALUE','Maximum Tolerance applied to model');
#39=(
NAMED_UNIT(*)
SI_UNIT($,.STERADIAN.)
SOLID_ANGLE_UNIT()
);
#40=(
NAMED_UNIT(*)
PLANE_ANGLE_UNIT()
SI_UNIT($,.RADIAN.)
);
#41=(
LENGTH_UNIT()
NAMED_UNIT(*)
SI_UNIT($,.METRE.)
);
#42=PRODUCT_DEFINITION_SHAPE('','',#43);
#43=PRODUCT_DEFINITION('','',#45,#44);
#44=PRODUCT_DEFINITION_CONTEXT('',#51,'design');
#45=PRODUCT_DEFINITION_FORMATION_WITH_SPECIFIED_SOURCE('','',#47,
 .NOT_KNOWN.);
#46=PRODUCT_RELATED_PRODUCT_CATEGORY('','',(#47));
#47=PRODUCT('Part 1','Part 1','Part 1',(#49));
#48=PRODUCT_CATEGORY('','');
#49=PRODUCT_CONTEXT('',#51,'mechanical');
#50=APPLICATION_PROTOCOL_DEFINITION('international standard',
'ap242_managed_model_based_3d_engineering',2020,#51);
#51=APPLICATION_CONTEXT('managed model based 3d engineering');
ENDSEC;
END-ISO-10303-21;
