ISO-10303-21;
HEADER;
/* Generated by software containing ST-Developer
 * from STEP Tools, Inc. (www.steptools.com) 
 */
/* OPTION: using custom renumber hook */

FILE_DESCRIPTION(
/* description */ ('STEP AP242 Edition 2',
'CAx-IF Rec.Pracs.---Representation and Presentation of Product Manufa
cturing Information (PMI)---4.0---2014-10-13',
'CAx-IF Rec.Pracs.---3D Tessellated Geometry---0.4---2014-09-14','2;1',
'CAx-IF Rec.Pracs.---User Defined Attributes---1.5---2016-08-15'),
/* implementation_level */ '2;1');

FILE_NAME(
/* name */ 'Top Head',
/* time_stamp */ '2026-07-26T00:53:23Z',
/* author */ (''),
/* organization */ (''),
/* preprocessor_version */ 'ST-DEVELOPER v20',
/* originating_system */ 'ONSHAPE BY PTC INC, 1.218',
/* authorisation */ '  ');

FILE_SCHEMA (('AP242_MANAGED_MODEL_BASED_3D_ENGINEERING_MIM_LF { 1 0 10303 442 3 1 4 }'));
ENDSEC;

DATA;
#10=SHAPE_REPRESENTATION_RELATIONSHIP('','',#31,#11);
#11=TESSELLATED_SHAPE_REPRESENTATION('',(#29),#37);
#12=STYLED_ITEM('',(#14),#27);
#13=STYLED_ITEM('',(#15),#29);
#14=PRESENTATION_STYLE_ASSIGNMENT((#16));
#15=PRESENTATION_STYLE_ASSIGNMENT((#17));
#16=SURFACE_STYLE_USAGE(.BOTH.,#18);
#17=SURFACE_STYLE_USAGE(.BOTH.,#19);
#18=SURFACE_SIDE_STYLE('',(#20));
#19=SURFACE_SIDE_STYLE('',(#21));
#20=SURFACE_STYLE_FILL_AREA(#22);
#21=SURFACE_STYLE_FILL_AREA(#23);
#22=FILL_AREA_STYLE('',(#24));
#23=FILL_AREA_STYLE('',(#25));
#24=FILL_AREA_STYLE_COLOUR('',#26);
#25=FILL_AREA_STYLE_COLOUR('',#26);
#26=COLOUR_RGB('',0.615686274509804,0.811764705882353,0.929411764705882);
#27=COMPLEX_TRIANGULATED_FACE('ConvergentBody',#28,72,((-1.,0.,0.),(0.,
0.,1.),(0.,1.,0.),(-1.,0.,0.),(0.,0.,-1.),(0.,-1.,0.),(0.,-1.,0.),(-1.,
0.,0.),(0.,0.,1.),(0.,-1.,0.),(1.,0.,0.),(0.,0.,1.),(-1.,0.,0.),(0.,1.,
0.),(0.,0.,-1.),(0.,0.,-1.),(1.,0.,0.),(0.,-1.,0.),(0.,-1.,0.),(0.,0.,1.),
(1.,0.,0.),(0.,1.,0.),(0.,0.,1.),(1.,0.,0.),(0.,0.,-1.),(0.,1.,0.),(1.,
0.,0.),(0.,0.,1.),(0.875957112906461,0.482388988626998,0.),(1.,0.,0.),(1.,
0.,0.),(0.,0.,1.),(0.,-1.,0.),(1.,0.,0.),(0.875957112906461,0.482388988626998,
0.),(0.,0.,1.),(0.,0.,1.),(1.,0.,0.),(0.,-1.,0.),(0.875957112906461,0.482388988626998,
0.),(0.,0.,1.),(1.,0.,0.),(0.,0.,1.),(-0.87596634907798,0.482372216533036,
0.),(-1.,0.,0.),(0.875957112906461,0.482388988626998,0.),(1.,0.,0.),(0.,
0.,1.),(0.,0.,1.),(-1.,0.,0.),(-0.87596634907798,0.482372216533036,0.),
(0.,-1.,0.),(0.,0.,1.),(-1.,0.,0.),(-1.,0.,0.),(0.,-1.,0.),(0.,0.,1.),(0.,
-1.,0.),(0.,0.,1.),(-1.,0.,0.),(-1.,0.,0.),(0.,-1.,0.),(0.,0.,1.),(0.,0.,
1.),(-1.,0.,0.),(-0.87596634907798,0.482372216533036,0.),(0.,0.,1.),(-1.,
0.,0.),(-0.87596634907798,0.482372216533036,0.),(0.,-1.,0.),(1.,0.,0.),
(0.,0.,1.)),$,(3,3,3,1,1,1,2,2,2,10,10,10,4,4,4,21,21,21,9,9,9,22,22,22,
24,24,24,6,6,6,8,8,8,5,5,5,7,7,7,12,12,12,17,17,17,11,11,11,16,16,16,19,
19,19,20,20,20,13,13,13,14,14,14,15,15,15,18,18,18,23,23,23),((1,4,8),(10,
7,6),(1,13,4),(16,5,15),(19,10,6),(6,18,19),(2,9,12),(22,14,3),(16,15,25),
(22,26,14),(2,28,32),(2,12,28),(32,23,2),(30,34,38),(40,35,29),(43,37,36),
(40,46,35),(36,48,49),(36,49,43),(30,38,31),(12,41,28),(33,39,52),(43,53,
37),(33,52,56),(32,57,23),(11,21,47),(49,48,20),(49,20,59),(18,58,19),(11,
47,42),(50,60,61),(18,62,58),(50,61,65),(67,64,63),(67,63,23),(18,70,62),
(63,72,23),(44,51,66),(44,66,69),(54,45,68),(54,68,55),(57,67,23),(71,17,
27),(71,27,24)),());
#28=COORDINATES_LIST('',24,((0.,0.,0.),(0.,0.,0.0108684065070131),(0.,0.0042325901439018,
0.0108684065070131),(0.,0.0042325901439018,0.),(0.00299964490222575,0.00271047451937628,
0.00155190852054756),(0.00299964490222575,0.00271047451937628,0.0108684065070131),
(0.00299964490222575,0.0030144612412974,0.00155190852054756),(0.00299964490222575,
0.0030144612412974,0.0108684065070131),(0.0043466347558704,0.,0.00155190852054756),
(0.0043466347558704,0.,0.0108684065070131),(0.0043466347558704,0.000264512088369772,
0.00155190852054756),(0.0043466347558704,0.000264512088369772,0.0108684065070131),
(0.0132872196369967,0.,0.00155190852054756),(0.0132872196369967,0.,0.0108684065070131),
(0.0132872196369967,0.000264512088369772,0.0108684065070131),(0.0132872196369967,
0.000264512088369773,0.00155190852054756),(0.014634148455259,0.00271047451937628,
0.00155190852054756),(0.014634148455259,0.00271047451937628,0.0108684065070131),
(0.014634148455259,0.0030144612412974,0.00155190852054756),(0.014634148455259,
0.0030144612412974,0.0108684065070131),(0.0176337933574847,0.,0.),(0.0176337933574847,
0.0042325901439018,0.0108684065070131),(0.0176337933574847,0.,0.0108684065070131),
(0.0176337933574847,0.0042325901439018,0.)));
#29=TESSELLATED_SHELL('Part 1',(#27),$);
#30=SHAPE_DEFINITION_REPRESENTATION(#42,#31);
#31=SHAPE_REPRESENTATION('Part 1',(#32),#37);
#32=AXIS2_PLACEMENT_3D('',#35,#33,#34);
#33=DIRECTION('',(0.,0.,1.));
#34=DIRECTION('',(1.,0.,0.));
#35=CARTESIAN_POINT('',(0.,0.,0.));
#36=MECHANICAL_DESIGN_GEOMETRIC_PRESENTATION_REPRESENTATION('',(#12,#13),
#37);
#37=(
GEOMETRIC_REPRESENTATION_CONTEXT(3)
GLOBAL_UNCERTAINTY_ASSIGNED_CONTEXT((#38))
GLOBAL_UNIT_ASSIGNED_CONTEXT((#41,#40,#39))
REPRESENTATION_CONTEXT('Part 1','TOP_LEVEL_ASSEMBLY_PART')
);
#38=UNCERTAINTY_MEASURE_WITH_UNIT(LENGTH_MEASURE(1.E-8),#41,
'DISTANCE_ACCURACY_VALUE','Maximum Tolerance applied to model');
#39=(
NAMED_UNIT(*)
SI_UNIT($,.STERADIAN.)
SOLID_ANGLE_UNIT()
);
#40=(
NAMED_UNIT(*)
PLANE_ANGLE_UNIT()
SI_UNIT($,.RADIAN.)
);
#41=(
LENGTH_UNIT()
NAMED_UNIT(*)
SI_UNIT($,.METRE.)
);
#42=PRODUCT_DEFINITION_SHAPE('','',#43);
#43=PRODUCT_DEFINITION('','',#45,#44);
#44=PRODUCT_DEFINITION_CONTEXT('',#51,'design');
#45=PRODUCT_DEFINITION_FORMATION_WITH_SPECIFIED_SOURCE('','',#47,
 .NOT_KNOWN.);
#46=PRODUCT_RELATED_PRODUCT_CATEGORY('','',(#47));
#47=PRODUCT('Part 1','Part 1','Part 1',(#49));
#48=PRODUCT_CATEGORY('','');
#49=PRODUCT_CONTEXT('',#51,'mechanical');
#50=APPLICATION_PROTOCOL_DEFINITION('international standard',
'ap242_managed_model_based_3d_engineering',2020,#51);
#51=APPLICATION_CONTEXT('managed model based 3d engineering');
ENDSEC;
END-ISO-10303-21;
